<svg xmlns="http://www.w3.org/2000/svg" viewBox="0 0 512.004 512.004"><g stroke="#000" fill="none"><path d="M427.32 399.023c23.483 14.88 30.457 45.982 15.576 69.466-14.882 23.483-45.983 30.457-69.466 15.576-23.484-14.882-30.458-45.983-15.577-69.466 14.676-23.16 45.188-30.316 68.63-16.095M212.586 394.507c25.983-9.89 55.064 3.155 64.955 29.138 9.89 25.983-3.155 55.064-29.138 64.955a50.34 50.34 0 0 1-14.513 3.179" stroke-width="7.62507453" stroke-linecap="round"/><path d="M313.424 449.017c0 7.655-6.206 13.862-13.862 13.862s-13.862-6.207-13.862-13.862c0-7.656 6.206-13.862 13.862-13.862s13.862 6.206 13.862 13.862z" stroke-width="7.447767999999999" stroke-linecap="round"/><path d="M283.6 448.177l-53.19-6.721 52.35-51.247 84.43-24.783 4.621 15.542-60.488 58.387" stroke-width="7.447767999999999" stroke-linejoin="round"/><path d="M400.449 441.548l-5.697-4.346-30.502-80.597 14.282-13.022" stroke-width="7.447767999999999" stroke-linecap="round" stroke-linejoin="round"/><path d="M369.623 341.217l17.597 4.865M305.698 483.15l15.452-7.778M298.977 448.705l14.191 29.607" stroke-width="7.447767999999999" stroke-linecap="round"/><path d="M295.781 435.575l-21.822-73.119" stroke-width="7.447767999999999"/><path d="M292.578 363.063l-3.045-2.153-28.277.091" stroke-width="7.447767999999999" stroke-linecap="round" stroke-linejoin="round"/></g><g stroke="#000" fill="none" stroke-width="13.6" stroke-linecap="round" stroke-linejoin="round"><path d="M237.225 38.046c34.462-10.354 70.793 9.19 81.147 43.652 9.85 32.782-7.347 67.596-39.367 79.696" stroke-width="17.374679999999998"/><path d="M319.02 128.824c29.208 21.016 35.85 61.732 14.834 90.941a65.155 65.155 0 0 1-35.304 24.684M298.223 247.323c-.53 35.98-30.126 64.719-66.107 64.19a65.155 65.155 0 0 1-54.257-30.56M176.418 281.992c-27.849 22.787-68.898 18.684-91.686-9.165-22.788-27.849-18.685-68.898 9.164-91.686a65.155 65.155 0 0 1 40.137-14.72" stroke-width="17.374679999999998"/><path d="M79.211 198.072c-31.531-17.338-43.037-56.955-25.698-88.487 12.824-23.323 38.546-36.5 64.967-33.283M118.507 76.398c-.142-35.984 28.914-65.27 64.898-65.411a65.155 65.155 0 0 1 52.673 26.455" stroke-width="17.374679999999998"/></g><path d="M206.218 309.686s1.317 74.585 7.328 110.394c4.912 29.26 19.87 82.353 19.87 82.353M175.5 295.504s-1.085 81.468-9.5 117-27 91.5-27 91.5" fill="none" stroke="#000" stroke-width="17.375" stroke-linecap="round"/><path d="M0 495.004h512v17H0z"/><path d="M392.444 362.45a8.485 8.485 0 1 1-16.97 0 8.485 8.485 0 1 1 16.97 0z" stroke="#000" stroke-width="7.274" stroke-linecap="round" stroke-linejoin="round"/><path d="M290.242 394.62l10.403 34.596 9.196 2.16 54.676-51.769-1.643-6.342z"/><path transform="matrix(.32105 -.94706 .9293 .36934 0 0)" stroke="#000" stroke-width="21.712" stroke-linejoin="round" d="M-255.526 344.127h3.428v24.816h-3.428z"/></svg>